<?xml version="1.0" standalone="no"?>
<!DOCTYPE svg PUBLIC "-//W3C//DTD SVG 20010904//EN"
 "http://www.w3.org/TR/2001/REC-SVG-20010904/DTD/svg10.dtd">
<svg version="1.0" xmlns="http://www.w3.org/2000/svg"
 width="405.000000pt" height="405.000000pt" viewBox="0 0 405.000000 405.000000"
 preserveAspectRatio="xMidYMid meet">
<metadata>
Created by potrace 1.11, written by Peter Selinger 2001-2013
</metadata>
<g transform="translate(0.000000,405.000000) scale(0.100000,-0.100000)"
fill="#000000" stroke="none">
<path d="M3360 2020 l0 -1920 25 0 25 0 0 1920 0 1920 -25 0 -25 0 0 -1920z"/>
<path d="M758 3217 l-196 -203 629 -523 c346 -287 629 -525 629 -529 0 -4
-283 -241 -630 -526 l-629 -519 197 -202 c164 -169 200 -201 213 -191 44 32
1709 1440 1708 1445 0 6 -1670 1412 -1708 1439 -16 11 -39 -10 -213 -191z"/>
</g>
</svg>
